<svg xmlns="http://www.w3.org/2000/svg" viewBox="0 0 807.31 754.75"><defs><style>.cls-1,.cls-2{fill:#13af9b;}.cls-2{font-size:294.71px;}.cls-2,.cls-3{font-family:KonTikiJF-Aloha, KonTikiJF;}.cls-3{font-size:395.54px;fill:#ec5064;}.cls-4{letter-spacing:-0.01em;}.cls-5{letter-spacing:-0.02em;}</style></defs><g id="Layer_2" data-name="Layer 2"><g id="traced"><path class="cls-1" d="M291.5,117.31c-16.09-39.15-100-68.41-177.91-95.13C103.3,18.65,105.13,3.6,116,2.6c90-8.26,190.79-.94,230.5,83.31C419.33,62.62,529.52,47.18,582,72.17c9.19,4.37,6.71,18.09-3.42,19.1C513.72,97.69,423,116.8,405.27,141.58c186.65,13,323.56,233.31,258.42,215.89C588.76,287.79,491.46,225.73,440.79,218c33,42.21,43.15,110.21,34.47,163.29-1.72,10.51-16.51,11.46-19.59,1.26-18.93-62.71-50.42-137.88-99.69-173.7-45.09,138.33-64.3,279-51.3,422.45,3.44,37.93-44,58.51-68.63,29.49-56.48-124.87-54.74-291.45,82.22-480.7C252,164.76,130.43,208.14,13.64,251.89A10.08,10.08,0,0,1,.5,239.39C20.73,176.49,118.12,124,291.5,117.31Z"/></g><g id="colours"><text class="cls-2" transform="translate(288.75 673.71)">text</text><text class="cls-3" transform="translate(295.09 455.89)"><tspan class="cls-4">t</tspan><tspan x="170.87" y="0">i</tspan><tspan class="cls-5" x="253.93" y="0">k</tspan><tspan x="429.16" y="0">i</tspan></text></g></g></svg>